# xmcd CD database file
#
# Track frame offsets:
#	150
#	25518
#	50395
#	72003
#	84601
#	95713
#	125658
#	134350
#	155459
#
# Disc length: 2317 seconds
#
# Revision: 0
# Processed by: cddbd v1.5.2PL0 Copyright (c) Steve Scherf et al.
# Submitted via: CDex 1.70beta2
#
DISCID=72090b09
DTITLE=Stefan Nilsson - Det Är Nu Först Jag Ska Börja!! - MP3
DYEAR=1980
DGENRE=Jazz
TTITLE0=I All Förtrolighet
TTITLE1=När Lamporna Kallnat
TTITLE2=Att Förlusta Sej Om Kvällen
TTITLE3=Att Vara En Slända
TTITLE4=Fem Dar Med Maria
TTITLE5=Allt Det Där Du Vet
TTITLE6=En Jack Daniels
TTITLE7=Det Är Nu Först Jag Ska Börja
TTITLE8=Alone At Last - Hommage Till Chopin
EXTD=YEAR: 1980
EXTT0=
EXTT1=
EXTT2=
EXTT3=
EXTT4=
EXTT5=
EXTT6=
EXTT7=
EXTT8=
PLAYORDER=
